    <svg
      xmlns="http://www.w3.org/2000/svg"
      width="4500"
      height="4311"
      version="1.1"
      fill='#DAA520'
    >
      <path
        fillRule="evenodd"
        d="M2727 366.115c-14.18 9.546-24.588 14.728-42 20.909-5.775 2.05-24.675 10.455-42 18.678-17.325 8.222-37.575 17.639-45 20.927-7.425 3.287-15.844 7.19-18.709 8.673-2.865 1.484-7.703 2.698-10.75 2.698-3.048 0-6.466.925-7.597 2.056-3.361 3.361-23.907 9.85-31.343 9.899-3.794.025-10.544 1.927-15 4.227-7.486 3.865-91.388 29.142-200.101 60.284-44.609 12.778-71.707 21.535-147 47.506-57.487 19.829-177.797 63.623-194.499 70.799-7.974 3.426-17.039 6.229-20.144 6.229-3.105 0-7.091 2.7-8.857 6-2.356 4.402-6.281 6-14.739 6-6.341 0-16.375 2.025-22.298 4.5-5.924 2.475-14 4.5-17.948 4.5-3.948 0-12.09 3.333-18.093 7.407s-12.769 6.696-15.036 5.826c-2.995-1.149-3.741.406-2.73 5.694 1.534 8.026-3.529 12.418-31.062 26.945-12.79 6.748-19.231 8.128-37.933 8.128-25.241 0-24.271-.594-55.28 33.848-8.59 9.542-20.093 19.218-25.561 21.503-5.468 2.284-12.486 6.965-15.596 10.401-6.982 7.715-31.817 8.866-37.724 1.748-6.743-8.124-19.703-5.307-34.5 7.5-20.069 17.369-28.77 16.557-45.868-4.285-5.372-6.547-19.633-5.897-26.044 1.188-3.336 3.686-6.105 13.267-7.372 25.507-1.116 10.781-3.482 21.056-5.259 22.833-1.777 1.777-9.131 3.976-16.344 4.888-7.212.912-15.289 3.546-17.95 5.854-10.208 8.858-24.198 10.571-40.915 5.01-13.621-4.53-17.667-4.726-29.915-1.45-30.533 8.166-40.524 19.766-44.533 51.701-3.138 24.996-18.117 45.774-40.983 56.851-9.991 4.839-25.781 16.063-35.09 24.942-9.308 8.879-19.982 17.114-23.72 18.3-7.807 2.478-15.507-2.54-15.507-10.106 0-14.807-20.794-16.616-35.25-3.067-5.362 5.026-9.75 10.373-9.75 11.883 0 6.798-18.647 20.403-42.393 30.93-22.49 9.97-27.074 13.321-34.883 25.5-4.945 7.711-9.899 16.987-11.009 20.612-1.826 5.964-3.426 6.424-16.831 4.836l-14.812-1.754-17.286 17.805c-9.507 9.793-21.336 22.818-26.286 28.944-7.319 9.059-12.844 12.196-29.582 16.798-26.742 7.352-29.65 10.537-30.231 33.114-.425 16.512-1.412 19.136-10.221 27.182-5.363 4.898-11.099 12.772-12.746 17.496-2.119 6.081-7.336 10.624-17.857 15.552-16.824 7.88-18.996 14.65-8.34 25.993l6.523 6.943-7.122 7.581c-6.52 6.94-8.559 7.419-24.111 5.659-16.675-1.886-17.127-1.736-24.528 8.169-4.147 5.55-8.418 15.017-9.492 21.037-2.14 12.009-11.168 18.049-32.676 21.859-6.26 1.109-15.416 5.657-20.345 10.106l-8.963 8.089 7.436 10.856c6.702 9.785 7.096 11.96 3.996 22.061-3.37 10.98-5.301 12.955-25.863 26.443-6.982 4.579-11.48 10.829-14.496 20.14-2.993 9.243-9.087 17.757-19.325 27-17.2 15.529-19.415 21.944-23.48 67.992-3.509 39.743-8.942 50.678-44.316 89.178-4.381 4.768-10.057 12.522-12.613 17.231-2.557 4.708-13.523 18.357-24.37 30.33-10.847 11.973-22.105 25.429-25.018 29.902-2.913 4.473-7.538 8.883-10.278 9.8-2.74.917-9.032 7.236-13.982 14.042-4.95 6.807-17.488 22.646-27.862 35.2-10.375 12.554-26.171 33.793-35.104 47.198-8.933 13.405-18.275 25.153-20.76 26.107-5.286 2.028-16.976 19.182-31.912 46.829-13.998 25.908-27.082 47.236-47.566 77.535-9.238 13.664-22.196 34.073-28.796 45.353-6.6 11.28-20.006 32.5-29.791 47.156-18.155 27.192-30.234 53.252-27.062 58.386 2.875 4.651 7.158.251 21.754-22.346 7.6-11.766 19.441-27.468 26.314-34.893 6.872-7.425 14.871-18.225 17.775-24 2.904-5.775 11.519-17.854 19.145-26.842 14.382-16.953 39.881-51.687 60.512-82.43 7.614-11.346 11.297-19.752 10.187-23.25-1.175-3.705-.225-5.478 2.938-5.478 2.571 0 21.54-11.812 42.151-26.25 20.611-14.437 41.34-28.268 46.063-30.734 4.723-2.466 12.849-10.664 18.058-18.219 9.883-14.336 22.697-26.293 52.956-49.416 9.9-7.565 21.375-17.044 25.5-21.065 8.654-8.436 31.816-27.32 35.333-28.807 1.311-.555 5.473-5.409 9.249-10.786 3.775-5.377 12.869-12.512 20.207-15.855 7.339-3.343 20.004-12.443 28.145-20.223 8.141-7.78 23.796-20.895 34.789-29.145 10.994-8.25 26.216-20.062 33.828-26.25 13.809-11.226 21.441-13.234 44.435-11.692 5.218.35 14.371-2.108 20.341-5.461 5.971-3.353 12.679-6.097 14.908-6.097 2.229 0 7.492-4.509 11.696-10.02 5.268-6.907 13.331-12.095 25.952-16.697 18.617-6.788 33.824-19.355 42.117-34.806 2.475-4.611 7.129-9.868 10.341-11.681 15.406-8.693 28.817-24.485 35.318-41.587 8.02-21.097 15.003-27.088 42.957-36.856 23.678-8.274 43.451-25.598 55.373-48.517 13.16-25.297 23.448-33.199 32.038-24.609 2.304 2.304 2.805 1.015 1.751-4.5-1.753-9.169 6.058-10.931 10.982-2.477 2.903 4.984 3.062 4.981 3.149-.06.133-7.749 14.439-29.19 19.476-29.19 2.37 0 7.981-4.814 12.469-10.698 10.842-14.214 27.366-22.302 45.566-22.302 14.332 0 33.58-6.888 33.58-12.018 0-1.418 2.823-3.474 6.274-4.569 4.472-1.419 5.821-3.725 4.697-8.024-3.535-13.519 15.096-40.042 25.752-36.66 3.061.972 7.188.491 9.171-1.067 1.983-1.559 6.981-3.657 11.106-4.663 4.125-1.005 13.88-7.604 21.678-14.663 7.798-7.06 19.654-16.886 26.348-21.836 25.126-18.582 29.974-23.175 29.974-28.399 0-2.952 2.025-7.047 4.5-9.101 2.475-2.054 4.5-5.036 4.5-6.627 0-1.591 4.184-8.718 9.297-15.839 10.065-14.014 30.812-24.513 42.435-21.473 3.642.952 11.68-1.022 18.592-4.567 6.697-3.434 14.153-7.204 16.569-8.379 2.417-1.174 7.207-7.722 10.645-14.551 10.259-20.377 25.462-34.824 25.462-24.197 0 2.455 1.077 2.474 3.973.07 2.185-1.813 13.998-4.175 26.25-5.249 13.89-1.217 25.983-4.18 32.12-7.872 11.176-6.722 21.657-24.931 21.657-37.623 0-12.64 5.05-17.221 30.715-27.866 18.267-7.577 26.1-12.9 36.755-24.978 33.938-38.471 33.859-38.413 58.374-42.736 12.461-2.197 32.398-4.022 44.304-4.054 28.172-.077 42.852-6.505 42.852-18.764 0-16.624 17.205-38.295 30.405-38.295 3.324 0 5.6-2.131 5.606-5.25.02-9.479 11.227-23.891 22.965-29.535 7.491-3.602 13.632-9.651 17.547-17.284 7.078-13.802 22.208-22.931 38.003-22.931 6.116 0 12.041-1.491 13.167-3.312 4.295-6.949 27.128-14.557 43.88-14.622 9.39-.036 17.895-1.396 18.899-3.021 1.004-1.625 11.352-8.518 22.995-15.318 11.643-6.8 23.418-14.583 26.166-17.295 2.749-2.713 7.827-6.957 11.285-9.432 3.459-2.475 16.775-12.937 29.592-23.25 12.818-10.312 24.903-18.75 26.857-18.75 1.954 0 8.859-4.412 15.343-9.805 6.485-5.392 15.812-11.805 20.729-14.25 4.916-2.445 17.32-10.74 27.563-18.434 10.244-7.693 21.409-14.872 24.812-15.952 3.402-1.08 6.186-3.107 6.186-4.504 0-5.381 42.882-29.674 63.029-35.707 15.902-4.761 59.82-27.268 83.971-43.032 4.125-2.693 22.35-11.177 40.5-18.855 32.072-13.567 79.981-39.332 82-44.1.55-1.299 3.25-2.42 6-2.493 6.115-.161 35.36-14.683 69.5-34.512 33.002-19.167 32.642-18.936 49.83-32.047 8.068-6.156 20.745-13.511 28.17-16.346 13.872-5.297 18.718-9.375 16.125-13.57-2.643-4.277-8.376-2.535-22.125 6.722m396 385.498c-9.075 5.606-24.6 12.261-34.5 14.788-9.9 2.527-40.543 15.99-68.095 29.918-42.234 21.351-99.74 47.194-171.905 77.255-22.541 9.389-28.591 12.121-85.5 38.606-30.185 14.049-65.889 28.163-84 33.206-37.777 10.521-46.946 13.904-57.647 21.269-4.481 3.084-15.281 7.685-24 10.225-17.524 5.104-53.468 23.673-74.353 38.411-32.137 22.679-83.964 48.928-101.244 51.279-7.841 1.066-28.431 4.458-45.756 7.538-17.325 3.079-37.422 5.345-44.661 5.035-11.075-.474-13.911.619-17.901 6.897-9.042 14.231-29.608 32.96-36.192 32.96-12.986 0-42.246 20.27-42.246 29.267 0 4.72-15.302 27.567-18.532 27.669-1.118.035-4.93-3.619-8.47-8.12-9.705-12.338-21.242-18.774-33.692-18.796-6.157-.011-20.819-1.67-32.582-3.688-20.893-3.582-21.519-3.505-27.056 3.333-3.117 3.85-5.668 10.211-5.668 14.136 0 9.787-14.598 46.375-21.371 53.565-5.482 5.818-5.733 5.811-30.869-.781-21.04-5.519-26.688-6.033-33.276-3.032-8.782 4.001-16.413 16.423-16.616 27.048-.187 9.791-7.029 27.789-15.298 40.237l-7.07 10.644-21.719-1.863c-25.507-2.189-31.494.194-39.524 15.731-3.169 6.133-11.723 16.948-19.01 24.034L1891 1341.268l-14.279-4.848c-7.854-2.666-15.889-4.23-17.856-3.475-1.966.754-7.51 7.263-12.32 14.463-13.293 19.903-19.935 26.607-32.994 33.302-17.291 8.864-34.434 23.922-34.497 30.3-.03 3.03-8.438 14.241-18.686 24.913-15.794 16.448-21.295 20.144-36.113 24.263-16.932 4.708-17.913 5.554-31.235 26.928-7.565 12.137-16.2 23.377-19.19 24.977-2.99 1.6-12.039 2.909-20.11 2.909-15.991 0-24.495 6.043-30.386 21.593-1.687 4.451-6.839 10.444-11.45 13.318-4.611 2.873-14.419 10.028-21.795 15.899-7.376 5.871-23.341 15.693-35.478 21.828-13.989 7.07-24.468 14.714-28.624 20.881-3.605 5.35-12.615 14.159-20.021 19.574-7.406 5.415-18.058 13.91-23.67 18.876-5.612 4.967-11.817 9.031-13.789 9.031-15.388 0-45.198 25.958-49.866 43.423-4.267 15.964-25.173 36.118-42.285 40.762-27.007 7.329-33.561 12.27-47.499 35.815-2.095 3.539-7.952 4.32-27.427 3.658-36.117-1.228-40.461.295-48.088 16.854-7.375 16.013-39.912 54.488-46.078 54.488-2.266 0-8.539 2.695-13.941 5.989-7.188 4.382-15.13 5.992-29.608 6-23.063.013-25.653 2.069-34.026 27.011-8.814 26.255-19.778 48-24.203 48-2.242 0-7.152 4.388-10.909 9.75-3.757 5.363-9.383 11.608-12.503 13.879-4.839 3.524-5.376 6.486-3.662 20.205 1.123 8.985.637 20.398-1.1 25.871-1.71 5.387-5.861 19.475-9.224 31.307-5.401 18.996-8.692 24.317-28.143 45.504-21.195 23.085-31.945 39.746-31.945 49.51 0 2.541-1.193 5.357-2.652 6.259-7.374 4.557-18.839 36.191-24.251 66.912-1.521 8.633-4.643 20.108-6.937 25.5-7.349 17.267-11.523 30.358-15.61 48.963-2.194 9.988-6.632 22.813-9.862 28.5-11.894 20.942-20.233 34.4-24.049 38.813-13.263 15.335-33.24 46.01-45.503 69.872a13714.458 13714.458 0 01-25.924 50.162c-6.442 12.379-13.584 27.229-15.871 33-7.188 18.134-35.088 72.615-53.086 103.664-47.487 81.922-46.213 79.556-46.237 85.894-.022 6.122-16.637 37.496-24.428 46.128-3.075 3.407-5.59 8.614-5.59 11.571 0 3.877-1.465 4.825-5.25 3.395-4.902-1.852-4.918-1.648-.25 3.072 4.669 4.72 4.612 5.473-.866 11.353-3.226 3.463-6.717 9.686-7.756 13.828-1.04 4.142-6.801 12.269-12.802 18.06-6 5.79-11.805 12.891-12.899 15.778-1.094 2.888-3.461 5.25-5.26 5.25s-2.422 1.375-1.383 3.055c2.409 3.898-9.139 22.768-15.406 25.173-2.641 1.013-4.005 3.766-3.071 6.199.961 2.504-2.114 8.168-7.189 13.244-4.877 4.877-8.868 11.671-8.868 15.098 0 3.427-2.7 8.931-6 12.231-3.3 3.3-6 8.025-6 10.5 0 2.475-1.35 4.5-3 4.5s-3 2.7-3 6-1.687 6.005-3.75 6.011c-2.062.006-6.315 6.419-9.449 14.25-3.135 7.832-12.247 28.004-20.25 44.827-8.003 16.824-14.551 32.095-14.551 33.935 0 3.03-5.724 15.998-29.12 65.977-10.993 23.481-11.014 23.523-25.655 51.313-7.298 13.853-15.613 32.259-18.477 40.902-2.864 8.643-6.454 16.485-7.977 17.427-1.524.942-2.771 4.047-2.771 6.901 0 2.853-2.7 10.484-6 16.957-3.3 6.473-6 13.218-6 14.99 0 1.771-3.441 13.298-7.648 25.615-10.275 30.089-16.256 54.623-14.147 58.035.95 1.538 4.837-6.432 8.636-17.713 3.8-11.281 11.551-27.354 17.226-35.719 5.675-8.364 27.231-48.958 47.903-90.208 20.671-41.25 42.205-80.4 47.853-87 16.774-19.602 40.536-59.783 47.35-80.069 13.899-41.377 23.436-55.988 63.273-96.931 46.189-47.471 49.612-51.621 64.085-77.7 7.11-12.81 22.626-32.25 40.706-51 40.088-41.575 59.862-68.941 80.885-111.943 11.15-22.806 22.255-40.932 29.41-48 24.6-24.304 51.807-46.352 70.479-57.113 14.697-8.47 24.423-17.367 39.424-36.062 30.143-37.566 42.046-45.932 93.065-65.413 17.406-6.646 23.963-11.258 38.315-26.951 9.524-10.414 25.325-24.167 35.114-30.563 9.79-6.397 23.225-18.444 29.856-26.773 6.631-8.328 19.702-20.394 29.046-26.812 22.823-15.678 37.789-30.198 46.041-44.67 6.987-12.254 21.128-52.32 21.128-59.863 0-2.297 3.12-7.993 6.934-12.657s10.49-14.669 14.836-22.234c5.473-9.526 13.486-17.256 26.066-25.143 11.546-7.239 18.164-13.406 18.164-16.927 0-9.578 12.781-15.468 27.322-12.592 14.489 2.865 21.514 12.23 25.101 33.461 2.592 15.343 12.712 22.019 27.356 18.046 12.516-3.397 34.167-31.388 48.848-63.152 13.485-29.176 17.006-32.789 40.515-41.572 21.458-8.017 40.858-24.572 40.858-34.865 0-8.506-6.567-22.248-13.302-27.838-7.897-6.553-5.422-14.631 6.856-22.382 16.5-10.417 38.527-36.74 43.874-52.432 6.034-17.709 5.773-25.641-1.526-46.407-3.999-11.379-5.455-20.775-4.23-27.303 1.114-5.938.548-10.768-1.403-11.973-5.043-3.118-3.87-7.666 1.981-7.678 2.888-.006 9.304-2.484 14.26-5.506 4.955-3.022 14.742-6.263 21.749-7.203 7.006-.94 18.831-5.279 26.278-9.643 11.026-6.462 15.143-11.473 22.188-27.012 9.221-20.336 18.535-28.744 33.813-30.523 8.976-1.045 21.149-8.787 48.372-30.767 6.925-5.591 17.468-13.254 23.43-17.029 5.962-3.775 19.214-14.616 29.447-24.09 14.165-13.115 21.604-17.736 31.16-19.357 14.167-2.404 44.094-9.742 66.697-16.353 21.876-6.4 52.322-25.706 63.606-40.333 9.162-11.878 9.75-14.108 9.75-37.006V1579.8l22.103-21.15c29.557-28.283 42.921-45.791 45.503-59.614 3.282-17.568 13.743-27.665 36.513-35.242 10.973-3.652 23.04-9.973 26.816-14.047 9.121-9.842 23.797-36.134 31.172-55.844 4.07-10.88 8.561-17.265 14.175-20.158 4.52-2.33 9.309-5.945 10.642-8.035 1.333-2.09 10.182-7.715 19.664-12.502 9.481-4.786 22.833-13.204 29.67-18.705 28.978-23.318 38.595-27.452 64.885-27.896 25.388-.428 34.908-3.739 50.034-17.4 15.116-13.652 32.374-38.346 44.393-63.52 8.994-18.84 18.189-31.98 34.826-49.769 12.432-13.294 22.604-25.289 22.604-26.654 0-2.008 33.391-28.395 72.922-57.628 16.845-12.457 51.748-33.37 84.458-50.606 19.734-10.399 49.434-27.28 66-37.513 16.566-10.234 45.645-26.673 64.62-36.532 18.975-9.859 49.394-28.079 67.597-40.488 18.203-12.41 63.428-37.848 100.5-56.531 37.072-18.682 105.717-53.269 152.545-76.858 46.828-23.59 85.781-43.531 86.562-44.312.782-.782.943-2.761.359-4.399-.585-1.637-8.488 1.61-17.563 7.216M3744 1056c-3.846 2.485-3.737 2.915.75 2.954 2.888.025 5.25-1.304 5.25-2.954 0-3.659-.338-3.659-6 0m-28.5 11.576c-24.432 9.403-44.3 19.52-57 29.026-4.95 3.705-17.1 10.807-27 15.781-9.9 4.975-26.1 13.953-36 19.953-9.9 5.999-25.153 12.993-33.896 15.541-16.194 4.72-34.412 16.177-102.604 64.521-7.425 5.264-26.325 15.524-42 22.801-48.087 22.321-83.342 39.93-93.658 46.777-5.413 3.593-17.942 9.835-27.842 13.87-9.9 4.035-20.54 9.7-23.645 12.587-5.432 5.05-34.827 20.567-38.964 20.567-1.105 0-7.721 3.632-14.701 8.071-19.723 12.544-43.655 24.929-48.168 24.929-2.251 0-6.536 2.7-9.522 6-2.986 3.3-6.959 6-8.828 6-1.869 0-8.073 3.995-13.785 8.878-5.713 4.883-12.038 8.933-14.057 9-2.018.067-9.443 2.679-16.5 5.804-7.056 3.125-22.28 8.742-33.83 12.481-23.266 7.533-31.711 12.693-54.486 33.293-8.673 7.845-26.854 19.335-41.327 26.117-16.434 7.702-33.184 18.622-46.014 29.999-11.095 9.84-27.837 23.074-37.205 29.409-9.368 6.335-26.978 20.969-39.134 32.519-19.945 18.951-24.943 22.008-51.218 31.33-17.167 6.091-29.116 11.977-29.116 14.344 0 2.208-2.362 4.915-5.25 6.017-2.887 1.101-14.025 10.846-24.75 21.655-10.725 10.81-24.562 22.323-30.75 25.586-6.187 3.263-11.25 7.805-11.25 10.094 0 2.289-3.489 10.573-7.754 18.408-10.514 19.318-24.731 26.929-56.132 30.048-21.293 2.116-28.661 4.549-54.614 18.033-16.5 8.573-31.818 17.075-34.04 18.894-2.94 2.407-3.751 9.674-2.978 26.699.904 19.899.345 23.392-3.745 23.392-2.644 0-7.171 2.612-10.061 5.805-2.889 3.193-11.156 8.58-18.37 11.971-13.109 6.162-13.116 6.173-12.862 21.945.281 17.433-5.285 32.875-16.767 46.522-5.746 6.828-10.985 9.423-21.97 10.88-22.125 2.935-27.707 8.243-27.707 26.343 0 12.899-1.31 16.35-8.893 23.434-11.345 10.598-24.847 13.423-36.17 7.567-4.751-2.457-10.496-4.467-12.765-4.467-6.617 0-16.296 12.465-20.347 26.202-5.143 17.441-10.983 21.706-34.221 24.997-23.69 3.355-34.377 9.983-34.51 21.402-.052 4.455-1.922 9.18-4.156 10.5-5.017 2.963-10.938 13.898-10.938 20.202 0 6.492-7.842 13.726-28.697 26.469-19.982 12.21-56.607 48.119-59.719 58.551-1.852 6.211-3.296 6.658-16.059 4.983-29.679-3.894-56.773 15.275-49.358 34.921 5.766 15.274-7.493 60.01-21.143 71.338-2.499 2.074-17.531 5.099-33.406 6.724-34.11 3.489-39.469 5.26-52.817 17.451-5.561 5.079-18.242 12.34-28.179 16.135-22.649 8.648-34.251 22.858-27.053 33.134 2.437 3.479 4.431 8.299 4.431 10.711 0 5.949 11.955 30.28 14.877 30.28 1.289 0 3.063 6.394 3.944 14.208 1.272 11.287.188 16.685-5.274 26.25-3.782 6.623-7.755 16.767-8.828 22.542-2.555 13.746-20.245 43.23-26.68 44.47-4.305.829-5.039-1.896-5.039-18.693 0-18.467-.456-19.777-7.493-21.543-11.278-2.831-15.807.234-19.738 13.354-3.382 11.289-4.078 11.822-13.448 10.302-7.789-1.264-11.432-.052-17.211 5.727-6.216 6.217-7.158 9.576-6.195 22.107.781 10.166-.546 18.052-4.252 25.276-4.989 9.723-6.312 10.442-17.89 9.711-11.451-.723-13.146.156-20.138 10.446-4.199 6.18-7.659 13.285-7.689 15.789-.03 2.505-4.101 11.895-9.047 20.868-8.103 14.702-8.653 17.341-5.564 26.7 3.121 9.458 2.79 10.89-3.704 16.042-3.922 3.112-13.543 9.007-21.381 13.101-13.081 6.833-15.828 10.156-14.468 17.504 1.329 7.185-12.727 29.717-20.327 32.586-13.202 4.983-16.125 14.976-9.055 30.959 6.952 15.715 5.366 23.641-5.8 28.993-4.425 2.12-9.88 7.683-12.122 12.362-3.505 7.313-3.404 10.267.723 21.072 2.639 6.912 4.799 18.183 4.799 25.047 0 14.975-7.612 21.82-24.263 21.82-12.761 0-26.737 9.601-26.737 18.367 0 3.262-2.226 10.235-4.946 15.496-4.26 8.237-5.375 8.884-8.037 4.664-2.787-4.419-4.189-4.175-14.242 2.478-9.25 6.121-11.495 9.669-13.164 20.802-2.414 16.099-9.255 33.477-16.413 41.693-2.875 3.3-6.763 10.05-8.641 15-5.26 13.864-18.557 72.992-18.557 82.517 0 4.667-2.686 14.335-5.968 21.484-8.384 18.262-34.976 68.112-38.775 72.69-1.74 2.096-10.425 17.873-19.302 35.06-8.876 17.187-26.41 46.534-38.965 65.216-12.555 18.681-24.135 38.7-25.732 44.485-1.597 5.784-6.359 15.047-10.581 20.583-4.222 5.535-7.677 10.731-7.677 11.545 0 1.729-24.92 42.464-37.696 61.619-11.887 17.821-11.942 17.922-18.086 33.301-2.967 7.425-7.684 16.88-10.483 21.01-2.799 4.131-8.666 18.164-13.038 31.186-4.371 13.022-10.591 27.037-13.822 31.144-3.231 4.108-5.875 8.729-5.875 10.269 0 1.54-10.8 24.809-24 51.709-13.2 26.899-24 49.891-24 51.092 0 2.25-42.993 92.561-47.887 100.59-7.176 11.774-25.791 52.227-35.203 76.5-13.455 34.701-30.627 76.521-34.185 83.25-2.209 4.179-1.546 5.25 3.25 5.25 3.375 0 6.025-1.994 6.025-4.533 0-8.56 32.646-69.14 45.671-84.751 2.106-2.524 12.604-21.127 23.329-41.341 21.501-40.523 27.307-49.08 49.776-73.365 15.37-16.61 51.786-69.839 58.76-85.886 2.061-4.743 11.367-20.099 20.68-34.124 9.313-14.025 20.478-33.378 24.81-43.008 4.333-9.629 11.712-22.454 16.398-28.5 4.686-6.045 13.668-20.318 19.96-31.716 6.292-11.399 18.551-28.459 27.242-37.913 8.691-9.454 17.482-20.378 19.535-24.276 5.714-10.851 38.751-50.449 53.397-64.003 7.181-6.646 22.177-23.559 33.324-37.584 33.352-41.965 98.011-104.765 128.036-124.355 18.805-12.27 39.457-30.408 70.588-61.995 24.203-24.557 45.303-44.65 46.889-44.65 1.586 0 10.808-6.202 20.494-13.783 9.686-7.58 20.552-14.935 24.146-16.344 3.595-1.409 8.91-7.566 11.813-13.682 8.216-17.314 26.679-35.276 34.23-33.301 3.79.991 6.908.032 7.846-2.413.856-2.232 5.383-5.391 10.059-7.022 5.163-1.799 10.442-7.052 13.441-13.371 3.648-7.688 8.42-11.737 18.263-15.496 17.207-6.571 19.28-14.787 12.858-50.978-.875-4.931 1.2-6.223 12.746-7.936 7.585-1.125 17.753-4.094 22.595-6.598 11.585-5.991 36.705-33.014 40.331-43.387 2.037-5.828 6.96-9.854 17.073-13.962 10.044-4.08 23.142-14.738 44.679-36.355 37.892-38.034 41.22-44.025 39.307-70.76-1.372-19.174-.994-20.718 6.938-28.317 7.238-6.934 9.96-7.75 19.838-5.944 6.296 1.151 14.391 3.987 17.988 6.302 5.635 3.627 7.709 3.599 15-.203 4.653-2.427 9.945-4.421 11.76-4.432 1.815-.01 10.57-8.455 19.455-18.768 8.885-10.312 27.491-30.225 41.346-44.25 13.856-14.025 27.193-28.537 29.64-32.25 2.908-4.412 7.447-6.75 13.104-6.75 10.124 0 18.016-7.067 26.531-23.756 8.59-16.839 8.694-59.924.19-78.666-7.278-16.04-7.747-36.224-1.077-46.404 2.744-4.188 10.174-9.689 16.511-12.224 6.337-2.536 15.03-8.779 19.316-13.873 7.03-8.355 7.683-11.228 6.661-29.323l-1.134-20.061 22.579-1.326c34.841-2.047 40.497-7.971 49.509-51.867 4.319-21.037 6.392-25.408 16.79-35.401 6.524-6.271 13.114-10.628 14.643-9.683 1.613.997 2.087-2.557 1.128-8.467-.971-5.984-.279-11.036 1.677-12.245 1.832-1.132 3.331-5.829 3.331-10.437 0-4.609 3.079-12.949 6.843-18.534 7.463-11.074 23.259-18.914 25.369-12.591 1.542 4.619 8.825.774 28.204-14.892 10.53-8.512 14.416-13.987 15.972-22.5 2.623-14.352 9.303-24.742 15.931-24.779 2.85-.016 12.105-3.254 20.568-7.194 13.527-6.298 16.708-9.649 26.32-27.721 6.013-11.306 11.797-25.92 12.854-32.475 1.51-9.376 5.336-15.041 17.929-26.551 8.806-8.048 16.01-15.903 16.01-17.457 0-5.339 19.525-30.357 39.18-50.202 10.825-10.929 26.059-29.658 33.855-41.621 7.795-11.962 15.375-21.75 16.845-21.75 5.743 0 71.948-63.68 79.369-76.342 4.327-7.384 9.875-14.548 12.328-15.921 12.468-6.978 58.423-50.788 58.423-55.697 0-5.474 29.344-38.611 100.5-113.491 31.709-33.368 37.345-40.056 53.97-64.049 5.932-8.562 23.536-25.302 41.014-39 16.841-13.2 39.565-33.198 50.499-44.44 10.933-11.241 22.6-22.041 25.926-24 22.796-13.422 46.881-32.154 75.046-58.366 30.606-28.484 82.267-69.694 87.37-69.694 1.269 0 7.003-3.741 12.741-8.312 5.739-4.572 13.997-10.12 18.353-12.33 4.355-2.209 9.388-7.244 11.185-11.188 1.797-3.943 4.703-7.17 6.458-7.17s4.822-1.363 6.815-3.029c1.992-1.666 11.042-6.796 20.109-11.4 9.067-4.603 18.058-11.523 19.979-15.376 4.226-8.478 9.639-12.159 14.906-10.137 4.973 1.908 22.129-10.132 22.129-15.53 0-2.234 4.725-5.622 10.5-7.528 5.775-1.906 10.5-5.132 10.5-7.168 0-3.497 15.573-16.832 19.655-16.832 1.044 0 5.331-2.7 9.526-6 4.196-3.3 10.947-6 15.004-6 4.949 0 7.914-2.054 9.009-6.242 1.164-4.449 3.332-5.797 7.551-4.694 4.12 1.078 6.379-.216 7.437-4.258.835-3.193 2.769-5.806 4.299-5.806 1.529 0 6.37-3.328 10.756-7.395s12.026-8.284 16.979-9.372c10.649-2.339 28.686-13.458 28.766-17.733.057-3.059 10.905-10.146 30.407-19.865 5.989-2.984 11.613-7.312 12.497-9.617.884-2.305 10.588-8.703 21.563-14.218 10.976-5.515 20.619-11.101 21.43-12.414 1.804-2.918 3.762-3.485-21.379 6.19m381.584 442.851c-4.628 2.414-13.984 9.155-20.79 14.981-6.806 5.826-14.375 10.592-16.821 10.592-7.89 0-34.471 18.748-53.562 37.779-10.223 10.191-25.073 21.626-33 25.411-7.926 3.785-15.342 8.4-16.48 10.255-1.137 1.856-12.914 10.727-26.17 19.714-13.257 8.988-24.853 18.366-25.771 20.841-.918 2.475-11.24 11.925-22.94 21-11.699 9.075-30.222 23.932-41.161 33.016s-27.827 22.546-37.53 29.916c-9.702 7.37-19.139 15.801-20.971 18.734-1.832 2.934-4.928 5.334-6.879 5.334-1.952 0-7.396 3.237-12.097 7.193-4.702 3.956-18.097 13.744-29.766 21.75-11.67 8.006-33.239 24.38-47.932 36.385-38.334 31.324-71.383 57.506-88.504 70.116-8.172 6.019-30.688 25.387-50.034 43.039-19.347 17.651-41.251 35.262-48.676 39.134-7.425 3.872-30.15 23.23-50.5 43.018-32.393 31.499-70.824 60.365-80.366 60.365-4.214 0-16.134 16.741-16.134 22.659 0 2.697-2.533 5.565-5.628 6.375-3.096.809-7.436 4.849-9.646 8.978-2.21 4.129-9.248 11.65-15.642 16.713-9.565 7.576-15.366 9.55-32.744 11.143-25.503 2.337-34.521 10.003-34.791 29.572-.179 13.024-14.059 42.907-19.641 42.287-5.393-.598-16.908 3.732-16.908 6.359 0 1.313-5.737 3.345-12.75 4.516-14.071 2.35-31.235 17.969-41.316 37.599-7.324 14.262-10.694 16.694-32.99 23.817-21.083 6.735-40.659 20.602-67.549 47.849-9.842 9.972-20.09 20.217-22.772 22.765-2.776 2.637-5.72 12.08-6.833 21.914-1.988 17.574-15.291 50.018-23.186 56.549-2.727 2.257-13.797 3.431-29.725 3.153-20.195-.353-28.297.873-39.664 6.001-7.857 3.545-15.122 8.625-16.145 11.289-3.266 8.512 3.841 18.07 18.845 25.341 29.54 14.317 29.548 14.323 30.544 24.165.984 9.715-9.843 29.894-16.062 29.936-1.707.011-5.514-4.061-8.46-9.048-6.576-11.133-15.175-16.896-28.937-19.394-9.284-1.686-11.697-.67-20.839 8.778-7.784 8.044-12.811 10.684-20.346 10.684-5.504 0-14.709 1.964-20.456 4.365-14.047 5.87-43.175 31.356-45.24 39.585-.913 3.639-3.564 7.346-5.89 8.239-2.326.892-4.277 4.703-4.335 8.467-.059 3.764-1.746 9.753-3.75 13.308-6.717 11.915-31.826 37.033-37.265 37.278-2.958.133-10.779 3.189-17.379 6.79l-12 6.549-.174 29.959c-.144 24.835-1.28 31.971-6.642 41.713-3.557 6.465-7.345 17.94-8.417 25.5-3.759 26.511-43.529 100.36-58.306 108.268-3.538 1.893-12.801 5.334-20.584 7.645-12.376 3.675-27.377 16.786-27.377 23.927 0 1.009-2.025 3.861-4.5 6.336s-4.5 7.023-4.5 10.108c0 3.085-1.35 6.443-3 7.463-1.65 1.02-3 6.707-3 12.638 0 12.747-12.4 40.454-24.117 53.889-12.509 14.344-13.829 25.446-5.03 42.325 10.834 20.784 7.452 27.648-13.621 27.648-10.586 0-20.468 2.273-29.346 6.75l-13.386 6.75-.9 27c-.941 28.229 4.631 54.737 13.702 65.178 3.999 4.604 3.988 7.935-.102 30-2.53 13.652-8.654 33.597-13.61 44.322-4.955 10.725-11.14 24.667-13.743 30.981-2.604 6.315-8.839 17.563-13.855 24.996-12.285 18.204-20.982 35.626-21.041 42.153-.045 5.062-26.879 88.439-32.623 101.37-1.467 3.3-4.148 13.118-5.96 21.818-1.812 8.7-6.1 21.525-9.529 28.5-3.429 6.975-10.489 25.507-15.688 41.182-5.198 15.675-22.659 54.655-38.801 86.623-16.143 31.967-29.35 61.123-29.35 64.791 0 3.667-2.527 9.582-5.616 13.143-3.088 3.561-6.498 13.132-7.578 21.269-2.441 18.403-27.201 80.388-55.791 139.674-25.324 52.511-37.552 81.011-40.482 94.348-1.897 8.638-1.567 9.269 3.434 6.573 3.043-1.641 7.896-3.714 10.783-4.608 2.888-.894 5.25-4.411 5.25-7.816 0-10.434 17.863-53.2 29.155-69.8 5.872-8.633 13.034-23.122 15.914-32.197 2.881-9.075 26.427-60.877 52.325-115.116 43.965-92.077 50.761-104.289 102.483-184.167 76.85-118.684 184.742-274.636 204.933-296.217 20.337-21.738 43.031-52.613 59.537-81 14.602-25.111 22.957-36.533 40.289-55.071 13.728-14.684 22.396-27.806 45.861-69.429 7.906-14.025 18.285-30.49 23.064-36.59 12.321-15.724 42.651-37.708 57.412-41.613 35.284-9.333 63.658-31.754 84.717-66.941 9.805-16.383 43.132-44.645 67.632-57.354 19.719-10.228 31.146-20.674 38.188-34.906l6.132-12.394-8.558-10.851c-4.706-5.968-10.73-17.395-13.384-25.394-4.654-14.018-4.596-14.918 1.605-24.951 4.257-6.887 11.636-12.714 21.814-17.224 12.018-5.325 18.148-10.768 28.038-24.892 6.961-9.943 15.88-20.19 19.819-22.771 3.94-2.581 10.064-10.864 13.609-18.406 3.545-7.542 7.692-13.713 9.216-13.713 1.524 0 4.554-1.752 6.735-3.893 2.18-2.141 10.116-8.101 17.636-13.246 17.839-12.205 35.828-32.276 35.828-39.975 0-3.353-2.18-9.425-4.845-13.492-4.477-6.833-4.458-7.985.254-15.177 3.114-4.752 4.4-10.569 3.303-14.942-2.436-9.705 8.989-33.479 17.315-36.03 13.659-4.185 42.83-19.975 50.614-27.397 4.478-4.269 12.999-19.369 18.936-33.555 12.405-29.641 15.362-33.27 47.923-58.803 39.056-30.627 52.948-47.259 62.633-74.99 16.68-47.757 23.687-57.005 46.813-61.786 25.279-5.226 40.493-13.734 54.952-30.73 15.7-18.456 18.13-22.949 22.836-42.222 1.979-8.106 6.223-18.075 9.432-22.154 3.209-4.08 5.834-9.193 5.834-11.364 0-2.17 1.879-5.025 4.175-6.345 2.297-1.319 9.799-11.394 16.672-22.389 8.382-13.407 15.857-21.584 22.7-24.831 10.054-4.771 12.414-7.934 25.883-34.679 3.739-7.425 8.313-14.85 10.164-16.5 1.851-1.65 7.932-9.075 13.514-16.5 5.581-7.425 31.502-35.179 57.602-61.675 26.1-26.496 51.017-53.496 55.37-60 15.417-23.033 38.067-46.792 114.304-119.897 42.414-40.671 108.166-104.623 146.116-142.115 68.832-68.002 86.974-84.249 112.5-100.751 13.164-8.51 13.313-8.78 6-10.846-11.24-3.174-12.781-3.054-21.916 1.711"
      ></path>
    </svg>